<svg xmlns="http://www.w3.org/2000/svg" viewBox="0 0 64 64" width="64" height="64">
  <defs>
    <linearGradient id="flag" x1="0" y1="0" x2="1" y2="0">
      <stop offset="0%" stop-color="#15627F"/>
      <stop offset="33%" stop-color="#15627F"/>
      <stop offset="33%" stop-color="#9E8400"/>
      <stop offset="66%" stop-color="#9E8400"/>
      <stop offset="66%" stop-color="#153D25"/>
      <stop offset="100%" stop-color="#153D25"/>
    </linearGradient>
  </defs>
  <rect x="2" y="2" width="60" height="60" rx="14" fill="#8B1A1A"/>
  <path d="M12 48 L12 16 Q12 13 15 13 L30 13 L30 51 L15 51 Q12 51 12 48Z" fill="#fff" opacity="0.15"/>
  <path d="M52 48 L52 16 Q52 13 49 13 L34 13 L34 51 L49 51 Q52 51 52 48Z" fill="#fff" opacity="0.15"/>
  <line x1="32" y1="11" x2="32" y2="53" stroke="#FAD201" stroke-width="1.5" opacity="0.8"/>
  <path d="M12 48 L12 16 Q12 13 15 13 L30 13 Q32 13 32 11 Q32 13 34 13 L49 13 Q52 13 52 16 L52 48 Q52 51 49 51 L34 51 Q32 53 32 53 Q32 53 30 51 L15 51 Q12 51 12 48Z" fill="none" stroke="#fff" stroke-width="1.5" stroke-linejoin="round" opacity="0.9"/>
  <text x="21" y="37" text-anchor="middle" fill="#fff" font-family="-apple-system,BlinkMacSystemFont,sans-serif" font-size="20" opacity="0.95">⚕</text>
  <text x="43" y="31" text-anchor="middle" fill="#fff" font-family="-apple-system,BlinkMacSystemFont,sans-serif" font-size="14" font-weight="700">L</text>
  <text x="43" y="45" text-anchor="middle" fill="#FAD201" font-family="-apple-system,BlinkMacSystemFont,sans-serif" font-size="12" font-weight="700">M</text>
  <rect x="8" y="54" width="48" height="5" rx="2.5" fill="url(#flag)"/>
</svg>
